<svg xmlns="http://www.w3.org/2000/svg" viewBox="0 0 1254 1254" version="1.1" width="1254" height="1254">
	<path d="M 642.2 115.2 C 640.3821375211701 117.01786247882985, 640.760847962551 120.47359525643074, 643 122.5 C 644.1 123.4954863183233, 645 125.35779230756603, 645 126.63845775387273 C 645 128.87598327056781, 619.3787160884497 198.43317693039788, 616.5138913735755 203.97313704564397 C 615.7460919513678 205.45789740583461, 613.5163666286828 207.89424461199545, 611.5589462120535 209.38724194822362 C 607.9152498867419 212.16642462226667, 607.0289619839854 214.98918777712345, 609.25 216.74106938246848 C 611.2210361385479 218.29575774425905, 637.3817867562994 219.2182132437015, 638.8163887464541 217.7836112535459 C 640.5961391246775 216.0038608753213, 640.2434278490919 213.1888544693166, 638 211.26797166350897 C 635.3749478625905 209.0203319557556, 635.4761062757884 205.63424146307221, 638.4002082908062 197.87174048755452 L 640.8004165816122 191.5 649.6502082908062 191.77803825773697 C 654.5175937308627 191.9309592994923, 661.0249168896539 192.3053798636614, 664.1109264214533 192.6100839558905 L 669.7218528429065 193.16409139630707 671.4991219290202 201.6330818088439 L 673.2763910151339 210.10207222138075 670.6381955075669 212.8557549718049 C 667.7694238003464 215.85010741551878, 667.2917455376685 218.21069921243236, 669.25 219.71594347882143 C 671.3076952149681 221.2976245033699, 703.9855441338979 223.25688673416767, 705.6243075714983 221.89683387870863 C 707.8076233981654 220.08484268077484, 707.268019441298 216.22171904244615, 704.5861526395593 214.4644924238695 C 700.2750709213101 211.63976319225569, 698.4884692318287 205.89707899116553, 683.4849660042624 146.6388255009049 C 679.4659427529134 130.76517952640256, 675.7847257643191 117.3847257643191, 675.3044838073861 116.9044838073861 C 674.8242418504531 116.42424185045309, 668.1467703750459 115.57822095376049, 660.4656583064811 115.02443737029145 C 643.0307895386157 113.76743916255856, 643.6384009697211 113.76159903027886, 642.2 115.2 M 537.5 125.60205942557911 C 536.4 125.86494923336733, 526.95 127.94029271264017, 516.5 130.21393382396323 C 497.54056185003697 134.33900157758455, 494 135.73452954459276, 494 139.08240741307924 C 494 140.7316187837958, 497.6947271188584 144.39824237295278, 500.19709514988546 145.2323650499618 C 501.2197422294665 145.57324740982216, 510.58404338851886 190.3869595388386, 514.6312848207741 214.3084882694208 L 516.4282360258319 224.92950522597314 514.214118012916 227.92426010552015 C 511.6583523061122 231.3811182209327, 511.3829154474641 234.24297587750635, 513.4415449763019 235.9514866392107 C 515.0442389833867 237.28160452611843, 543.8867902470832 231.16877146805987, 546.5887665591627 228.92633029912162 C 549.0127196451389 226.91462791399417, 548.1944077158686 224.04725269430125, 544.58930431736 221.92018963346013 C 540.3451194175568 219.41605925886796, 540.2805978868872 219.25048349353085, 537.5443316676475 203.84131385124408 L 535.2964795060525 191.18262770248816 539.7370732946749 190.5167195394224 C 545.424101300355 189.6638970222471, 545.6018911764198 189.82954627316775, 557.7829275784775 207.33028795230828 C 569.9822665089993 224.85732524474122, 572.7766863012844 226.2929204819914, 587.3204010616741 222.5047640170534 C 602.1559168081038 218.64060305051777, 606.0220046235492 213.12081173713196, 595.9967322610323 210.1171670786329 C 592.7763069248633 209.15230417922226, 590.4204589744636 207.06944881146694, 584.2348571351877 199.7182426758175 C 579.9806857108345 194.6624224194542, 574.2972242441795 188.1575277125194, 571.6049427648434 185.26292110485122 L 566.7098855296866 180 571.789485674852 174.62907183350745 C 585.470698650217 160.16320640685424, 580.9308262939101 135.71399299803173, 563.0698659408467 127.67007673658304 C 558.5904490108788 125.65271294580585, 542.6742660417038 124.36545778453494, 537.5 125.60205942557911 M 749.5714285714286 127.57142857142857 C 747.6255785098784 129.51727863297873, 747.6118192296194 131.90268345831242, 749.5318033718704 134.4411296351049 C 750.3393115173417 135.50875093441257, 751 137.5732691400765, 751 139.02894786991362 C 751 141.95943585303405, 726.783663565227 209.1550329145622, 724.4366661335473 212.73700374817415 C 723.6249007613114 213.97591430164834, 721.4379278207693 215.62583538839795, 719.5767262656761 216.4034950520621 C 715.7425438214411 218.00551876725368, 714.0702627066142 221.50093319275481, 716.1472213591534 223.57187171810344 C 717.9565679687431 225.37597388206675, 742.5907108166082 232.37103660458712, 744.5232182071743 231.62946393845337 C 747.0275026436715 230.6684798328317, 747.4111070924899 227.96595993634605, 745.5019747342956 224.7340564516336 C 742.8161891658888 220.18738387523123, 743.2043249536202 218.31012812926707, 751.5463208783061 195.5 C 755.770324022177 183.95, 759.5522528991951 173.375, 759.9506072716797 172 C 760.4859339407027 170.1522126509727, 762.8195454697428 178.23964952303425, 768.8955868176907 203 C 773.4169711955124 221.425, 777.5428253157279 238.13312775861323, 778.0641515292809 240.12917279691828 C 778.9364870567957 243.46915639291993, 779.6179502761062 244.00513368408033, 786.6161575163064 246.85540669043786 C 794.3240497731609 249.99472458737344, 798 249.9176881939835, 798 246.61683703803618 C 798 243.670761767196, 827.7291211457026 165.099490676344, 829.6982380812841 162.84137508675144 C 830.4937308062046 161.92913138446474, 832.4677799912677 160.6346663081564, 834.085014048091 159.9647860282885 C 837.4822063429275 158.5576229057778, 839.0095846125088 154.51621206331956, 836.8796501934121 152.57023744568824 C 834.637478656888 150.52171949164637, 811.1250159037918 142.8255461523988, 809.0859570451182 143.47271829368196 C 806.2516880405764 144.37228033076556, 805.903769360604 147.7537902431326, 808.1935000061596 152.14673465819476 C 810.6279693522022 156.81736634934842, 810.5488022028267 157.1784634787229, 801.743130782706 181.56815286467872 C 794.2643029857326 202.28278985674712, 794.7085765664749 201.80620654318614, 792.150953795581 191.85791955561868 C 790.9691399848509 187.2610638000284, 787.1243351124443 172.2581243587424, 783.6069429680106 158.5180541305387 C 779.9810942521885 144.3543174908586, 776.6245491039791 133.2144067050798, 775.8558422617929 132.79321905572453 C 774.3283533686478 131.95628172017248, 753.4559506875507 126, 752.0505875251383 126 C 751.5513358148836 126, 750.4357142857143 126.70714285714286, 749.5714285714286 127.57142857142857 M 546 143.75155399907925 C 555.2956052538622 148.39522937972302, 556.6503303721263 164.84042147294943, 548.2311204299608 170.8354277378658 C 544.3619826923047 173.59049681636728, 533.0465901518318 176.3504157186758, 532.4879474525262 174.67531933043082 C 531.6711613105039 172.22617693911215, 526.9298827459972 144.73678392066944, 527.266235928114 144.40043073855264 C 527.9756378488812 143.69102881778554, 535.5969088136319 142.19816391160515, 539 142.1020050978247 C 540.925 142.0476116930083, 544.075 142.78990869857282, 546 143.75155399907925 M 660.9414806920075 156 C 662.189657344441 161.225, 663.7932756455904 167.9223422463525, 664.5050769167839 170.88298276967225 L 665.7992610462265 176.2659655393445 656.8560264411537 175.75604535437924 C 651.9372474083636 175.47558925264835, 647.6463606070118 174.9796939403451, 647.3207224381498 174.65405577148312 C 646.9950842692878 174.32841760262113, 649.1498215353672 167.54315486870067, 652.109027473882 159.5756941405487 C 655.0682334123967 151.60823341239674, 657.7555019125991 145.4067864783475, 658.0807352521094 145.79470095377258 C 658.4059685916199 146.18261542919765, 659.6933040395741 150.775, 660.9414806920075 156 M 425 157.09795284512705 C 412.1909494488018 159.5994793236219, 397.62323664875225 171.1697243698386, 391.909486486838 183.37972784354184 C 381.47168951149234 205.684787343043, 386.81972377092484 233.16243096530619, 405.4183488484247 252.7868572124687 C 424.92793091538954 273.37248398814336, 454.02369228436805 273.8942947399004, 474.07594137518765 254.0181798616988 C 484.457722570919 243.7275897761617, 488.257148457085 233.81303372057639, 488.26193518436634 217 C 488.2640949198491 209.41408516412193, 487.71753868748874 205.78739748473302, 485.54926371877616 199 C 475.9255259488471 168.87460793677354, 451.4451339771666 151.93338560364327, 425 157.09795284512705 M 433.03908525214956 176.60424765016288 C 441.24758624910436 179.04191048533824, 449.4778099560954 187.91207609569818, 455.88902090533395 201.2308824350288 C 466.03583427810617 222.31012056075855, 466.62410945416053 238.64431444589894, 457.4950832917908 245.82520747177693 C 445.61711012605963 255.16842252564047, 429.64997039762267 245.88419004437952, 418.2229594191118 222.99008895537364 C 406.10222333927027 198.70610449024116, 407.37789437502437 181.55093924913857, 421.6838039094705 176.44881190053536 C 426.5773782271672 174.70354437325065, 426.6416874458906 174.70442466421997, 433.03908525214956 176.60424765016288 M 922.5714285714286 199.57142857142856 C 921.5979683027281 200.54488884012906, 920.9927590558915 202.92317186234303, 920.9809711879304 205.82142857142856 C 920.9593107213716 211.1470389984549, 921.2572029764206 210.75213993649464, 891.0194886701535 245.53968623228533 C 866.2477845440804 274.03875846317766, 865.2822098455327 275, 861.426371336272 275 C 857.8035244264698 275, 855 277.1593739090079, 855 279.9498190428168 C 855 280.9785823411574, 857.4763344259837 283.6301888759938, 860.75 286.10679744417007 C 863.9125 288.4993065199364, 869.6893175111284 293.0540308078116, 873.5873722469519 296.22840697278167 C 877.4854269827754 299.4027831377517, 881.1657841256326 302, 881.7659436755235 302 C 884.259421038673 302, 886 298.7393901163663, 886 294.0683828736361 C 886 289.44400197984686, 886.3345577614601 288.89500988075133, 895.7464758018193 278.074916795096 L 905.4929516036386 266.87021070006205 908.6526140075324 270.31799922773814 L 911.8122764114262 273.7657877554142 910.4593431594081 280.6328938777071 C 909.7152298707982 284.4098022449682, 907.7402971449319 292.675, 906.0706037685941 299 C 901.8029517327149 315.16638091129073, 901.923165265652 316.9344585448177, 907.7106691937263 323.12176836375363 C 912.0233063350724 327.73232629369664, 924.3583431805312 336, 926.9244731463833 336 C 927.5160129158725 336, 928.9076171067956 335.09238289320444, 930.01692690399 333.9830730960099 C 931.8896948231805 332.1103051768194, 931.925432108581 331.75648174477476, 930.51692690399 329.03273302289415 C 928.2796574845818 324.7063310317949, 928.6209263836005 319.98025633287807, 932.5 301.57007348343524 C 934.425 292.4339741231783, 936 284.8489968644871, 936 284.7145684641214 C 936 284.58014006375566, 939.7125 284.47120497779895, 944.25 284.47249049532866 C 951.2467913365524 284.4744727538223, 953.2682755134778 284.0712518569351, 957.5576357880857 281.818046350195 C 976.307698985369 271.9686182436447, 981.2582128043601 249.38016370779397, 968.481379991003 231.9746344719617 C 964.4803014989388 226.52407487821952, 954.4654069653811 217.45279798002355, 946.4002494429566 211.97401951237657 C 943.7051122493305 210.14317373128208, 938.2904507376827 206.25003697600417, 934.3676683059614 203.32260450064786 C 926.7507664800755 197.63838261100415, 925.0464447517537 197.09641239110346, 922.5714285714286 199.57142857142856 M 325.5 217.67524059377843 C 313.6407976906582 227.8915249415852, 312.6133550678063 229.4587447353467, 315.9850441243443 232.18897289709975 C 317.31389863942945 233.26501400264686, 319.2398628875831 233.9090312993368, 320.29993525093437 233.6318161490043 C 323.4964013528098 232.79592148596183, 326.92066281809156 234.74972298722528, 331.9077962356901 240.25498334824357 C 347.2660490812596 257.2088471263503, 360.17775575605407 272.2826027748744, 358.9356514221196 271.80861874636327 C 357.6656918978301 271.3240052441608, 305.0228680122516 256.011201348758, 292.7828068887768 252.56600483066768 C 288.39593175538283 251.33123592041443, 287.86574661593164 251.38747422857972, 285.21135799602075 253.36913084157277 C 278.40778523791454 258.44839649504473, 267 269.6001746096019, 267 271.17179974713815 C 267 273.5881340315173, 270.85252535359643 276, 274.7121880442191 276 C 277.7261139173744 276, 279.96494869635666 278.2090952645723, 303.59540773527306 304.4995500534938 C 335.88785485232313 340.4270417520797, 333.5450901756593 337.35621927130904, 333.2796463294495 343.4087192532626 C 333.04005534161274 348.87173702619214, 334.17082201489626 351, 337.31296710869094 351 C 339.3651872739567 351, 358.5486315661708 333.3443451312676, 360.4035320256057 329.74839165026424 C 361.9808548242154 326.69055672468875, 358.46916120067806 324, 352.9007761392146 324 C 349.32487969216874 324, 347.4924129018248 323.4299643218427, 345.6678073334688 321.75 C 341.584723341993 317.9905927353676, 313 285.5597995555961, 313 284.68674454732434 C 313 284.3866769109478, 315.8125 284.9587464520535, 319.25 285.95801019422584 C 397.53646544990346 308.7154869729663, 388.92752507544776 307.2903421937874, 398.25 299.03586097005393 C 403.9441286671608 293.9940583855477, 404.1057752464671 292.4552719390072, 399.4149512086693 287.94616678367305 C 395.67676763139326 284.35279753680726, 355.7917059375094 238.05232659002405, 347.0323179964832 227.13792218896214 C 342.46936690695526 221.45237728689, 341.3569824384565 218.64905687636326, 341.922756058735 214.26131371898725 C 342.2296082204689 211.88158369143449, 339.9117980918917 209.00024395861874, 337.71481624151204 209.03029671756252 C 336.4020608843326 209.0482540440168, 331.42715247691683 212.5692078693607, 325.5 217.67524059377843 M 945.5612566805984 234.25690885451138 C 952.3779417113535 241.07359388526655, 953.2028147017875 244.69295386635216, 949.6889397292992 252.3682678325934 C 946.4269387191778 259.49341659483, 940.9168638028115 263.3846153846154, 934.0894025183728 263.38461538461536 C 929.314608670772 263.38461538461536, 925.8367618787248 261.76112352566827, 919.6963862598585 256.66581892272865 L 916.892772519717 254.3393706919207 927.6117430373017 241.66968534596035 C 933.5071768219734 234.70135840568216, 938.7747812659067 229, 939.3175306904868 229 C 939.8602801150669 229, 942.6699568106171 231.36560898453013, 945.5612566805984 234.25690885451138 M 632.6602973286913 267.75 C 632.408542165659 268.1625, 629.6781201624221 282.9, 626.5926928770539 300.5 C 623.5072655916855 318.1, 620.8168449594274 333.23768585562044, 620.6139803609246 334.1393019013787 C 619.8047381906439 337.735916249148, 621.4440715416999 338.224335355281, 634.9309866756204 338.4048769427333 C 644.6953322979097 338.5355866299803, 648.3817707586344 338.24492066447186, 649.181539417614 337.2812583835438 C 649.9674603839699 336.3342815514758, 649.2772805486209 330.4855144523403, 646.6396554394623 315.7406589342471 C 644.6482491085588 304.60829652041116, 642.0615125084264 289.65, 640.8913518836125 282.5 C 639.7211912587985 275.35, 638.3118348892492 268.9375, 637.7594488401696 268.25 C 636.6582965484362 266.8795052131963, 633.3873245415397 266.55876832201614, 632.6602973286913 267.75 M 1013 277 C 1011.6776139409988 278.3223860590012, 1011 280.3333333333333, 1011 282.9353775141285 C 1011 286.8480331168499, 1010.8686470401747 286.9796187847543, 988.25 305.72568196410606 C 945.5594238488197 341.1071190709107, 946.3499241668427 340.5306040974728, 940.8557416306467 340.2904999432475 C 935.7617713746047 340.06788567589865, 933 341.6797431761387, 933 344.87536029184105 C 933 347.5167229306161, 953.7274244773844 373, 955.8758390813432 373 C 958.6520819333355 373, 961 369.7295082704453, 961 365.8623889635206 C 961 361.19763896896256, 961.2095046936691 360.9709729093769, 979.0856441091748 346.2952775375089 C 987.6577483692209 339.257874891879, 1001.9037602939138 327.5375, 1010.7434483862701 320.25 C 1024.8820673492557 308.5940247420207, 1027.2556721288988 307, 1030.4735457311845 307 C 1035.6663342113459 307, 1038 305.47674740005493, 1038 302.0872609569542 C 1038 300.5239566176158, 1037.3414125122283 298.6983103623246, 1036.5364722493962 298.0302692785293 C 1035.731531986564 297.362228194734, 1031.5903344346818 292.244628072785, 1027.3338110229913 286.6578245630871 C 1017.395042692283 273.6129190330074, 1016.7928356090317 273.20716439096833, 1013 277 M 526.2 288.2 C 524.3330362322475 290.0669637677524, 524.4619170639805 290.6041785595909, 533.9247684333978 320.3992014650045 C 538.8333910717666 335.854640659252, 543.5989529925494 351.117188227798, 544.5149060351373 354.3159738395512 C 545.4308590777251 357.51475945130437, 546.7844116215895 360.36377657480244, 547.522800577058 360.6471230028803 C 548.7830420353051 361.1307230256939, 569.9512644586304 351.2985224908841, 572.8176200970188 348.89820365394013 C 573.5423111503791 348.2913391172968, 573.9255222261994 347.24829732358313, 573.6692002655082 346.58033300124305 C 572.5688513773646 343.71286976311575, 529.6503210189439 287, 528.5806631951848 287 C 527.9312984378332 287, 526.86 287.54, 526.2 288.2 M 739.7143284562123 288.2887467124002 C 736.525154756177 290.7618678669493, 696 345.27986447955055, 696 347.0970998213951 C 696 348.5089996003561, 699.0518726500923 350.5144407984491, 708.1121789514966 355.05623359038486 C 719.7274704136885 360.8788013142861, 722.5484652275976 361.5617939028012, 723.4623886255458 358.7726812023536 C 729.9668567394214 338.9223363410673, 745 291.08182185705755, 745 290.2327630328456 C 745 288.2290544254109, 741.4669498545774 286.9296344582875, 739.7143284562123 288.2887467124002 M 240.62756079148565 315.1102632612784 C 233.4168564111006 316.80354582891334, 223.21703835487975 322.99825953545826, 217.53571727241427 329.13476436203445 C 192.39189013387357 356.2930985513238, 204.08478183806093 396.1109922536587, 242.4888115106815 414.1077273432834 C 253.27629157989466 419.1629109462854, 263.9597635245284 420.92699632885603, 273.69154842994294 419.26001232898176 C 295.6527709373318 415.49821458136324, 312.78582330962524 396.5123839086179, 313.8245253116936 374.78703186332257 C 314.08011705954914 369.44110907605875, 313.7466249846771 364.0871676135802, 312.9798639495087 361.22668716700406 C 307.62316158049947 341.24296123169523, 286.6046882618079 321.0390885328042, 265.43584712094616 315.5253058614466 C 259.07093566949413 313.8674570339074, 246.79455865450313 313.66207326135327, 240.62756079148565 315.1102632612784 M 251.06849877257218 338.58253028895024 C 262.5444831216931 341.92619018472516, 276.87564965096357 352.1068717751031, 284.7367004882408 362.5 C 290.5689061845691 370.21078356960584, 292.2600253485104 374.2831005880737, 292.27422679739834 380.65081829857155 C 292.3259279776419 403.83285582778956, 259.2962226421756 400.13815603257797, 234.85366777538798 374.22775985754583 C 227.1373627989928 366.0480699668855, 224.47315142189782 359.8348173175881, 225.24365091806985 351.81607615561984 C 225.83158820594613 345.69729612478005, 228.289326983492 342.17845125197005, 234.02043243745487 339.25 C 239.21696912189543 336.59469999170307, 243.65021644724078 336.4211284995999, 251.06849877257218 338.58253028895024 M 1035.6622232001946 340.50095402369624 C 1026.5513290103897 343.9554339525464, 1019.3190535008441 351.8191720054617, 1016.4893381554398 361.34785698136307 C 1014.6250882083389 367.62546737461946, 1014.6226409591162 371.7660642919816, 1016.4748803731853 385.80954567277604 C 1018.3313945461005 399.88543781851024, 1017.4297658015981 406.20702335569445, 1012.9890118326898 410.25 C 1009.4950570454661 413.43098631446543, 1003.7434258046061 413.9529208145037, 999.0319799355777 411.51653746740357 C 991.0604660507826 407.39430743017357, 988.5849331276082 391.0351012393186, 994.2734806949923 380.0706740304733 C 997.5415159619595 373.77167865843006, 997.6057733589984 372.8581924795766, 994.949900347188 370.454660437339 C 993.1313092176069 368.8088580845008, 992.5384503556995 368.74839898641915, 989.699900347188 369.9192711814419 C 987.9399551562345 370.64523016848534, 982.7203198096232 372.71136023814745, 978.1007106880515 374.51067133624656 C 973.48110156648 376.30998243434567, 969.2796342676595 378.5358378083789, 968.7641166906728 379.45701661187593 C 967.4713015752984 381.7671490579598, 970.4485661576448 398.68265389078266, 973.4466117690802 406.06088937418394 C 978.4188804090246 418.2977175172605, 986.2505408742468 427.4660385046, 996.214095876255 432.7141902030022 C 1003.6815210473143 436.6475433170552, 1018.8227724019107 436.796593831432, 1026.5 433.0123247152888 C 1032.91799071059 429.8487603004701, 1038.9076825595043 423.8337664243094, 1041.9470722361207 417.5 C 1045.1329660616113 410.8609344341225, 1045.8750534326798 397.43156465760103, 1043.5944427696613 387.68794697717533 C 1040.1167264767394 372.8298484386129, 1042.209853876819 364.2158384317779, 1049.8544999384771 361.9254467617158 C 1053.254223351338 360.90686485190236, 1054.3389530203142 361.0037817980101, 1057.6391268208756 362.62097698054197 C 1065.8443399420642 366.6418049529888, 1068.8641050489791 376.33932906539997, 1065.0749464863397 386.5 C 1062.0376556264084 394.6445293065105, 1061.5447099183937 397.74648272508927, 1063.007601129858 399.5091588011788 C 1065.049506461903 401.96950421184846, 1067.9558943698094 401.2503883212048, 1077.190261865584 396 C 1082.0269537557476 393.25, 1086.5727915183306 391, 1087.2921235602134 391 C 1090.7156604611455 391, 1092.179980897252 385.9992628247836, 1089.6116339659561 383.07874067158406 C 1088.848032647232 382.21043330221283, 1087.0227085683364 378.1404770317026, 1085.555358235077 374.0343934037835 C 1079.7677639745486 357.8389794664684, 1071.5316089245262 346.8935771172434, 1061.380773592275 341.90768452885345 C 1055.3227645632835 338.9321084969889, 1041.7569138610743 338.19009560278306, 1035.6622232001946 340.50095402369624 M 432.2 354.2 C 431.54 354.85999999999996, 431 356.14730713658093, 431 357.0606825257354 C 431 358.9418339867478, 489.6503004563946 415, 491.61843652360517 415 C 492.3194966511244 415, 494.54598835464475 412.509805261656, 496.5661958647615 409.4662339147912 C 498.5864033748782 406.42266256792635, 502.21045783217284 401.3940065100183, 504.61965021430507 398.29144267499555 C 509.30858140608814 392.25302563182817, 509.366328082234 392.12443966189636, 508.2077044492922 390.30183245382506 C 507.45711818060647 389.12110050197253, 435.8102246917957 353, 434.21880655813504 353 C 433.76846295116076 353, 432.85999999999996 353.54, 432.2 354.2 M 810 364.33265362853274 C 781.2192304221029 378.07695982724783, 761.8747442904116 388.2514658742141, 760.5594786063518 390.3365950338689 C 759.8159566755184 391.5153220983797, 760.3743703500387 392.9649182338551, 762.8186312895418 396.2011702554804 C 764.6043710458835 398.5655266149662, 768.1417311271261 403.5375, 770.6794314700812 407.25 C 773.2171318130364 410.9625, 775.9614669181403 414, 776.7779539258678 414 C 777.5944409335953 414, 784.333357365053 408.2625, 791.7533237735515 401.25 C 799.1732901820502 394.2375, 812.2767331364778 382.0079865906824, 820.8720858945019 374.07330353484974 C 829.4674386525259 366.13862047901716, 836.9014879124474 358.8368296114242, 837.392195360994 357.8471016068655 C 838.3534644436625 355.90827851817767, 836.6503623943428 352.95625666352953, 834.6275552845578 353.0550940292012 C 834.007399878051 353.0853957452619, 822.925 358.16029756496107, 810 364.33265362853274 M 607.2773852941631 357.0340144501026 C 547.3619869057637 368.49885164506946, 504.2065343108847 410.30240071540885, 492.84620265727426 467.88048392047 C 490.82119203791933 478.14393691528574, 490.7713044036967 479.1998758322681, 492.2419402187265 480.6705116472979 C 494.7304322681125 483.1590036966839, 496.6787676920621 481.61544670722566, 498.36951959696216 475.8159738395509 C 499.2219067372046 472.89218822779793, 501.99704144475913 466.225, 504.5364856137499 461 C 543.4524143693009 380.9290418625102, 641.882933316733 353.6893158128585, 714.8581922246069 402.7954336557481 C 741.0331174518055 420.40892324073644, 761.5249938664643 446.4112680673268, 769.5607185743916 472.20801082780474 C 771.3773269985901 478.03979102422363, 772.7475758353661 479.4178306531145, 775.6299571709402 478.3117571538492 C 781.1806945820842 476.1817393536112, 769.0298177315177 438.00766323595377, 756.704177079477 418.85315357464515 C 743.6881270407196 398.6257217309158, 723.9257410987444 380.9882437091978, 702 370.03092513682657 C 690.6540947235791 364.36084547813664, 683.0538472829396 361.6566985695604, 669 358.2896168860116 C 654.161744093371 354.734603182421, 622.6447456040349 354.0934634597383, 607.2773852941631 357.0340144501026 M 621.5 406.40761155763573 C 596.6720817507322 412.12528028230116, 577.6638406159504 430.0130693380401, 571.4578470913332 453.5 C 570.5234275119318 457.03636332096085, 569.5179569307122 467.09621309370397, 569.0090998638523 478 C 568.0831125334156 497.8420522904681, 567.0130127914754 607.1527055548971, 567.0049386670589 682.7249999999999 L 567 728.9499999999999 563.75 728.3833471746391 C 543.7879353496088 724.9028670718152, 534.3149221406223 711.6182987812236, 531.0313188693758 682.5 C 530.4731188071129 677.55, 530.0127174905776 652.0714456379334, 530.0082048326308 625.8809903065187 C 529.9993078896166 574.2451270658985, 529.4337112915294 566.9496593109016, 524.4976508322078 554.8019400466353 C 515.6434503339251 533.011619030704, 493.146687929108 521.6433027037982, 470.534962389995 527.5329090179761 C 461.858626779421 529.7928073573386, 455.58330190795164 533.6215836042344, 448.9718359219885 540.6892615766894 C 438.1035235531236 552.30752174626, 433.65713597024103 565.0719327202647, 431.96897839266506 589.5 C 430.70894568271893 607.7329921223512, 430.7803051093707 689.4050993973705, 432.06777664574565 702.5763222575187 C 438.0123366249502 763.3909671482911, 468.43881982168153 804.8330963449023, 520.024849391812 822.3774951018979 C 531.7176049968575 826.3541990392329, 550.9620177114115 830, 560.2603509335421 830 L 566.3219566616618 829.9999999999999 565.6609783308309 858.6626915956427 C 565.297440248874 874.4271719732463, 565 898.9245991684443, 565 913.1014186960826 L 565 938.8774542008797 560.75 939.4081037953088 C 558.4125 939.6999610722447, 549.075 940.83468564936, 540 941.929713966676 C 511.0283042231129 945.4255627023628, 476.35756790043456 952.6994627828738, 455 959.7626639533487 C 448.0816845262226 962.0506329852115, 446.2524940605083 963.0884917445987, 445.16989880042416 965.3401348766183 C 443.5643827626555 968.6793783529918, 445.53796518973485 972.5949485647964, 449.30285041703326 973.5398746061478 C 450.55550325529606 973.8542704552071, 463.7123107998438 972.518127851121, 478.5402005160283 970.5706688192896 C 528.8392152825026 963.9645183505368, 549.5146360504106 962.3021087048016, 598.5 960.9252869912139 C 655.3210555748235 959.3282290784684, 716.2065920245539 961.5551078310998, 780 967.5636204472439 C 823.0270366573604 971.6162099043014, 821.7247302877174 971.5590907900663, 824.0068936367616 969.4937613444731 C 826.5354429739118 967.2054556441653, 826.5593198019471 963.5593198019473, 824.0621085635269 961.0621085635266 C 820.7150724216101 957.7150724216099, 790.5309716411808 949.2464414726561, 767 945.0524237924312 C 751.6056129691542 942.3086216083088, 736.6271320410004 940.4166681965609, 718.3938157381203 938.9129069357209 L 703.2876314762407 937.6670504872955 702.6570318763513 923.5835252436477 C 702.3102020964122 915.8375863596415, 701.7253481476713 888.9975497625503, 701.3573564347048 863.9389994723339 L 700.6882805929475 818.3779989446678 709.5941402964738 816.5636683891119 C 786.1408205375661 800.9693310077602, 832.9570780218861 746.5352219150219, 836.9368476340384 668.5 C 838.2806747243078 642.1502723965757, 836.5224115114794 540.7551430521809, 834.6000676597953 533.7430955678051 C 829.4198255226798 514.8473585672701, 815.1147637897114 500.13007868429366, 797.4584463224126 495.53119220565424 C 774.6929781750889 489.6015410291544, 750.2824343370262 501.0248769340809, 740.0196479203466 522.4106706996585 C 737.88456315915 526.8598018148463, 735.656698611128 533.1701467735688, 735.068837813631 536.4336594968197 C 734.3985113469639 540.1549808742851, 733.9926144674938 562.5257096349089, 733.9801914387721 596.4336594968197 C 733.9690803747824 626.7606762904582, 733.5251669691776 653.510532328415, 732.9691780824096 657.3564912781612 C 730.7201211365567 672.9139617514929, 724.1421508533867 686.7158782372333, 714.0713576846993 697.0079533042292 C 708.960425288592 702.231186370581, 702.6287800232184 706.9867226542042, 700.7726625832056 706.9962619395621 C 700.3726270039687 706.998317872803, 699.9178517952575 651.0875, 699.762051008292 582.75 C 699.4463272526223 444.2669244436784, 699.9638080095311 454.4315006267849, 692.4691627371205 439.5 C 685.2950001890612 425.206993634864, 671.3763410753023 413.4446161799189, 655.7145069551901 408.4393833845471 C 645.5959908071733 405.2056925871508, 630.5888656782814 404.3145193172934, 621.5 406.40761155763573 M 169.33676951527642 416.47667085768694 C 168.17723588093247 417.2888398294148, 166.92025084913598 419.2013398294148, 166.54346944461759 420.72667085768694 C 166.1666880400992 422.25200188595915, 164.5646146474448 425.5264577888753, 162.9833063498301 428.003239530834 C 150.00995023821034 448.3232312728975, 150.08795747359542 468.7010549431835, 163.18417323341544 480.47567897437966 C 170.28292106651514 486.85806365404113, 177.45250229934186 489.30297039944173, 187.5 488.7676456808055 C 197.6602706633847 488.22631248559736, 203.14983660967974 485.53684866772403, 214.1362763885259 475.7179251217215 C 228.54092683552264 462.844040196936, 233.06965831076351 460.4456314814881, 239.68708675302418 462.1862581196033 C 246.11073977449672 463.8759147076185, 248.71872155320247 470.9507575777363, 245.6368782263096 478.3266468781286 C 242.7650592954283 485.19987704531815, 230.7020459567915 493, 222.944305883534 493 C 219.52090752901256 493, 217.76560399702345 495.09518849878083, 218.17774239245972 498.68952823440765 C 218.46604272982754 501.20385199038515, 219.81716324835776 502.15076512630094, 231 507.67582071842963 C 237.875 511.0725221135659, 244.21775559704955 513.8850221135659, 245.0950124378879 513.9258207184296 C 247.1746293491152 514.0225375118239, 249.5600713675112 511.2202623649286, 250.3983535449106 507.6957715849315 C 250.76518783861275 506.1534459566438, 253.15524522975227 502.3284459566438, 255.70959219188734 499.1957715849315 C 258.2639391540224 496.0630972132192, 261.94726898621815 490.125, 263.89476959676676 486 C 267.2014764662282 478.99606595107264, 267.43780693525065 477.83857873190317, 267.4678398988822 468.5 C 267.5047762556567 457.0148505475182, 265.96496183481514 452.9649618348151, 258.8597590347763 445.8597590347763 C 252.0926812345034 439.0926812345035, 243.16794971945708 435.5239889341683, 232.97897252246807 435.51092519060046 C 221.4559398569643 435.49615099482446, 214.57210491870998 438.8450476627641, 201.7813385088716 450.688170655209 C 188.10000091011645 463.3558841206498, 181.7238129142167 465.4510856414896, 175.57292549641556 459.3001982236883 C 173.57520713147056 457.30247985874325, 173 455.72628008489323, 173 452.24979087700757 C 173 443.2596353363118, 179.50755353384977 436.43712615300797, 189.35766824407364 435.10043647951727 C 195.89632248799936 434.21312177674434, 198 432.7281809763002, 198 429 C 198 425.41697079677806, 197.0631313267598 424.73193420117116, 187.27993683322333 421.16151016015755 C 182.76908875506385 419.5152543861094, 178.06062821699092 417.4554463288724, 176.81669119306125 416.58415892185315 C 173.99909399441833 414.61063702323247, 172.04107736457402 414.5824999081378, 169.33676951527642 416.47667085768694 M 1104.6752257463108 424.12194457570615 C 1103.671599906782 424.70556453785366, 1102.0122216880197 427.13858259039716, 1100.987718593506 429.5286513591361 L 1099.1249856943905 433.8742309386615 1077.3124928471952 440.8908650464229 C 1038.9518751759497 453.23069342974617, 1019.8281029937867 459, 1017.2853531812552 459 C 1015.923130193865 459, 1013.5589650985894 458.26183188711184, 1012.0316529695318 457.35962641580403 C 1008.8570158749304 455.4843221465101, 1004.5567088240799 456.1068567686102, 1003.6080302617961 458.5790734732036 C 1003.2711156579038 459.4570588571665, 1007.2714801474074 473.28407611728727, 1012.4977291273597 489.3057784956942 C 1017.7239781073118 505.32748087410107, 1022 519.6558706465933, 1022 521.146644656788 C 1022 524.6938620811594, 1024.6619678446068 527.3459488916078, 1027.399075750816 526.5256794247555 C 1028.5545840878672 526.1793912110442, 1034.6666888560308 524.555261124289, 1040.9815307911795 522.9165014541884 C 1053.9032909323694 519.5631856303622, 1054.2836021072821 519.3410623954888, 1053.8281776696706 515.4133331274088 C 1053.554328782295 513.0515707775069, 1052.724126792424 512.3064180425275, 1048.8132713367372 510.91217411400964 C 1039.45366085056 507.575415637122, 1037.57343728342 505.758526739932, 1034.1667592682475 496.7590246562169 C 1028.7176353847508 482.3639448965384, 1027.6794221616085 484.1731651000381, 1044.5220870279568 478.71353286405474 C 1052.56577675771 476.106131476371, 1059.513343827275 474.1992299444212, 1059.961124960324 474.4759739041662 C 1060.4089060933727 474.75271786391124, 1061.7601308791027 478.6290798778068, 1062.9638467063905 483.09011171282293 C 1064.9671134581938 490.51431977857493, 1065.0251905547611 491.46378070100116, 1063.6497663316404 494.30372118359185 C 1061.9397333468437 497.83455321232555, 1062.9613181675102 501.0218752769767, 1065.785183758488 500.9661763651318 C 1066.7283326913196 500.94757336595427, 1072.45 499.477048003234, 1078.5 497.69834222575344 C 1089.1495014660336 494.56737862494, 1089.5086638198932 494.3693094701349, 1089.7719041867217 491.48216586062165 C 1089.9928547906716 489.05884404300997, 1089.428118328965 488.1056760182378, 1086.7582945447925 486.3957644245395 C 1084.204419786906 484.76011338148135, 1082.9384644401505 482.7559362632902, 1081.0733687877891 477.3957644245395 C 1079.7536922271956 473.6030939910428, 1078.493654883043 469.9882726108487, 1078.2732858007835 469.3628280241082 C 1077.92474957434 468.3736234865343, 1098.7249850015085 461, 1101.8639657502054 461 C 1103.4482272538594 461, 1108.0007164967005 476.4461811599181, 1107.9948766349557 481.80162195881815 C 1107.9913464905812 485.03893818895943, 1107.2236229420203 487.74388612260157, 1105.5260861737993 490.5 C 1102.4158912485075 495.5496999861716, 1102.3855930377415 497.55131913686284, 1105.3895579457808 499.51959254039406 C 1107.6470538314288 500.99876065531123, 1108.2627121364987 500.86186892314026, 1116.5294053272642 497.0426455202482 C 1121.3420645169006 494.8191904841117, 1125.8666697757023 493, 1126.5840836801572 493 C 1127.3014975846118 493, 1129.1510662629441 491.9083162804479, 1130.6942362986738 490.5740361787731 C 1133.4894635843673 488.15718252000147, 1133.4935237820157 488.13558968598664, 1131.7754346472757 484.8240361787731 C 1129.786687676391 480.9907996643068, 1112.0113858722502 430.12708506382893, 1112.0045513121718 428.25 C 1111.9995606648765 426.8793383350765, 1108.4492600367478 422.98178479020635, 1107.25 423.03040868590074 C 1106.8375 423.04713346314617, 1105.67885158584 423.5383246135586, 1104.6752257463108 424.12194457570615 M 434 451.734864865763 C 399.4110451300957 453.2912334075326, 384.71891196138057 454.66392560120585, 383.4040819298159 456.462062813748 C 382.54096922827745 457.64243976741943, 382.3799088518165 458.8564420690857, 382.95102894019044 459.87697704819664 C 384.137928269205 461.99784848416994, 465.9424835638556 481.2926238331898, 467.66976867654586 479.8591045125819 C 468.3154069251802 479.3232723579822, 469.1329139235109 476.9982697794059, 469.48645089505845 474.69243211574576 C 469.839987866606 472.3865944520856, 470.8494938004947 466.7233132982317, 471.72979741481106 462.10736288495934 C 473.87967793041645 450.83427290429233, 474.03284974763756 450.93760032459613, 455.55887036489514 451.19869700697495 C 447.8264916642028 451.30798036081114, 438.125 451.54925589726577, 434 451.734864865763 M 797.0119758361735 452.48557000018263 C 796.0298497080829 453.6689595893202, 796.1043219601613 455.65221114079674, 797.3780940208403 462.23557000018263 C 798.2575614994979 466.7810065000822, 799.2627528785613 472.3997843378959, 799.6118526409812 474.721742973102 C 800.0193490305397 477.4321136533679, 800.856265806978 479.13699286874026, 801.9496270839475 479.4840122575149 C 802.8863032651589 479.78130172873585, 818.9183228817664 476.6084746386893, 837.576337343075 472.4332853907447 C 856.2343518043838 468.2580961428001, 875.0687041986075 464.06193834840457, 879.4304537746834 463.10849029208794 C 887.9270000740519 461.2512044912315, 890.3619889518448 459.3870979932941, 888.3893558535955 456.25 C 887.1410348084582 454.2647826531136, 882.8341247420115 453.8520332671081, 844.7380372994637 452.0667097400258 C 811.8414221039 450.52505270874695, 798.5421928464446 450.64177129930044, 797.0119758361735 452.48557000018263 M 189.19618307063814 553.8038169293618 C 187.41248182132298 555.587518178677, 184.11825723249012 571.7903632520295, 180.5155584344177 596.5 C 165.66152640302332 698.3785516943151, 188.9388084529094 811.7651689937419, 245.03121651376222 910.7640200340355 C 254.28825581195147 927.1019931437186, 256.066721722426 928.8346152829367, 261.3248347854989 926.6376353669541 C 268.8964840944317 923.4739982859235, 268.72765398258406 919.4726546939115, 260.432967026299 905.5 C 238.05952767169057 867.8112548954919, 218.963463298385 821.7417154493883, 207.58355205776314 778 C 197.25113037459525 738.2845892545361, 193.11165868005804 708.3593416746967, 192.2884677072414 667.4281155375646 C 191.59917114543697 633.154472630342, 193.62455600870487 608.2077392445387, 199.71136826993688 576 C 201.11458942422237 568.575, 202.47573238070362 561.2892012541002, 202.73613039545077 559.8093361202227 C 203.80016926097187 553.7623083819193, 193.71214296365162 549.2878570363484, 189.19618307063814 553.8038169293618 M 1068.9576025088636 555.5451300612232 L 1066.566576964308 558.0902601224464 1069.8195861435806 577.2951300612232 C 1078.894606223983 630.8715483038849, 1080.0154044816827 669.1953308923665, 1073.9148269521584 717.3248966291088 C 1065.6446030383936 782.5715529643165, 1043.556614980335 847.920552539995, 1011.072346974186 903.2491730557635 C 1001.4863803566905 919.5764090321395, 1000.9817111525973 922.3878218845214, 1007.0715214153436 925.536985161275 C 1013.4642828383195 928.8428105715403, 1014.9289798808405 927.5791751517133, 1025.0187708375997 910.0533872566889 C 1062.2802052133104 845.3309367786018, 1085.149791921221 772.0331803074984, 1092.054893910737 695.200469863035 C 1093.6139164221731 677.8533075214185, 1092.7518452364286 628.3072294277564, 1090.5713345921408 609.9354162674302 C 1087.7542094580506 586.1998308675797, 1082.3969187974535 557.0960716775228, 1080.4486156485514 554.943220930762 C 1077.8176042984717 552.0359861131483, 1071.9663354598383 552.342480596789, 1068.9576025088636 555.5451300612232 M 904.4357939235967 975.5631688746723 C 898.9711072656186 979.6522366107107, 894.3503409450154 983.6949417145864, 894.1674243222565 984.5469579943963 C 893.6813289459302 986.8111654126353, 895.8865627702253 989, 898.6538295117809 989 C 899.978746556274 989, 901.2750624163267 989.5625, 901.534531423009 990.25 C 902.2941033325345 992.2625936984759, 904.7353246215578 1011, 904.2379654486197 1011 C 903.9887537848192 1011, 899.1173184175894 1008.9047545027789, 893.4125535214428 1006.3438988950643 C 883.852084936134 1002.0522269270216, 883.0865530862108 1001.5033263829566, 883.6317941598825 999.3309129096118 C 884.2778639173625 996.7567659613302, 882.5775100209912 994, 880.3437244926624 994 C 878.1131376963006 994, 857.1230649929631 1009.2858222895964, 856.3984422128756 1011.4379257650139 C 855.5469518754849 1013.9668213017537, 859.0663426054771 1016.9011361768793, 862.2264287970396 1016.2970474249671 C 863.5967254201862 1016.0350986277995, 872.6391020528047 1018.8974962028786, 884.2573849201201 1023.2710276013622 L 903.964072650162 1030.689319833678 909.982036325081 1038.4767544386682 C 916.208337081506 1046.5337837912614, 916.7108193979352 1047.8033047139388, 914.9648162415119 1051.0657414540892 C 913.629203219142 1053.5613572144468, 915.3552288408855 1057, 917.9435153780798 1057 C 918.973746701687 1057, 922.2204140103674 1055.057668629854, 925.1583316195919 1052.6837080663427 C 928.0962492288163 1050.3097475028312, 933.0875 1046.4705526488422, 936.25 1044.152163946367 C 944.1728430017607 1038.3440280707098, 943.9031370740454 1034.5126991013092, 935.5229863227886 1033.8245134336562 C 931.9863732249856 1033.5340835215716, 930.92641982361 1032.729442566339, 925.4310386033096 1026.1634271607893 L 919.2907446637178 1018.8268543215786 917.9597157617086 1003.6634271607893 C 916.4232873137113 986.1600349926667, 916.2942153554275 978.9704922786256, 917.4244257681894 973.8468014275554 C 918.1028460675815 970.7712538640877, 917.9251963060008 970.0303337948727, 916.3009275914076 969.1610515594023 C 914.683464378259 968.2954115177733, 912.7654731379696 969.3303096717913, 904.4357939235967 975.5631688746723 M 354.9955029625852 976.505418598596 C 354.195525847305 977.4693320540005, 353.9696173472914 979.4085347480843, 354.3674630228404 981.896524922935 C 354.96760119465597 985.6495828717722, 354.4910524877821 986.4771206590065, 340.405896440907 1006.141106324339 C 324.5511742023874 1028.2755455729014, 323.902284482696 1029, 319.9313150803373 1029 C 316.71015217474763 1029, 314.5972815852594 1031.22254063941, 315.46132107260655 1033.7020122242825 C 316.20076236125817 1035.8239333757365, 345.48215074541514 1057.7150359066911, 352 1061.0187485842966 C 358.78522177664865 1064.4579847998493, 368.22948390609236 1064.8033604200987, 373.986624898816 1061.8227970221246 C 383.1310053692462 1057.088605908556, 387.2071956028463 1045.757930515916, 382.8266447354872 1037.25 L 381.1532894709744 1034 384.17551561295403 1034 C 388.43398809736647 1034, 393.7038584578748 1031.2594206672786, 396.46426881536087 1027.6092729521754 C 402.6637609771661 1019.4115562294262, 401.46931782058414 1009.7552637603152, 393.28440004195596 1001.9021116526297 C 386.90594942782445 995.782203763643, 359.3518968661967 975, 357.6162771168923 975 C 356.86201388958796 975, 355.6826655201497 975.6774383693681, 354.9955029625852 976.505418598596 M 377.9477451391933 1005.2557578061098 C 383.1444655824249 1010.3317487539763, 382.2296016579958 1017.4196145050763, 376.0471582524563 1019.9804664122548 C 372.3287468940852 1021.5206828273742, 369.3067247718839 1020.4691378068319, 363.5811863467802 1015.642797740893 L 359.66237269356037 1012.3394355169045 364.574168965519 1005.7567150495631 L 369.48596523747767 999.1739945822217 372.3062042361677 1000.8369972911108 C 373.8573356854472 1001.7516487809999, 376.3960290918087 1003.7400910127494, 377.9477451391933 1005.2557578061098 M 361.18254924788846 1029.183384410127 C 367.54515799190773 1034.1556214978564, 368.3035566033243 1041.5726909475482, 362.840611900178 1045.3990863626937 C 358.25727804804603 1048.6093783555405, 352.718660539519 1047.0685159940974, 344.1061796574625 1040.1871031446137 C 341.41775989599046 1038.0390430740313, 341.2969310658512 1038.399228204499, 347.788317191681 1029.210822180595 L 352.23146886930095 1022.9216443611898 354.86573443465045 1024.6135992578852 C 356.31458049559274 1025.5441744510676, 359.1571471615498 1027.6005777695766, 361.18254924788846 1029.183384410127 M 809 1033.0014784252012 C 801.9287961350036 1034.8109807064327, 769.6666627155192 1048.5525671064242, 768.6418056211704 1050.1914642142192 C 767.3444895256252 1052.26606330575, 770.0596155982425 1055.7244350376975, 773.3544293994637 1056.1941338591103 C 776.0139690440058 1056.573269892861, 777.7877159028434 1060.0229313162242, 787.3945592415453 1083.5 C 796.8340804193077 1106.5681691393365, 796.5587405694104 1105.547291608366, 794.4146926091433 1109.5285477095542 C 792.5510569680149 1112.9891096485278, 793.5095029664395 1116, 796.4747269603579 1116 C 798.128519597857 1116, 819.0526886514405 1107.2011617340138, 820.7512993737269 1105.791440043773 C 823.1457326086751 1103.8042369590096, 821.7867583744543 1100.5842426960917, 818.096044669054 1099.5 C 815.2283222789034 1098.6575323083473, 814.2640971310611 1097.546098631255, 811.975235814302 1092.444725505822 C 807.3500703051366 1082.1362394230807, 807.3507781025323 1082.2747946444206, 811.9162959925784 1080.9069322135715 C 815.8396844687394 1079.7314564346093, 816.0397479397894 1079.7936682530617, 820.5826966707107 1083.60183969865 C 831.6514193781579 1092.880305349546, 837.6080029232721 1096.9503737029227, 840.1539625127184 1096.9746714797836 C 843.7373115812288 1097.0088697508177, 859.8277457363691 1089.1903771275547, 861.1118273316811 1086.791048719421 C 862.4696479756319 1084.253937638571, 860.6242368946325 1082.0145185941906, 857.1275552845578 1081.9561071759422 C 852.9032618710035 1081.8855411373665, 848.0552713081767 1079.7570556408841, 839.2651437335082 1074.113706613091 L 831.0302874670165 1068.826847268814 833.422966076491 1065.663423634407 C 845.4166752457169 1049.8062237163342, 829.0201322560048 1027.8783797733388, 809 1033.0014784252012 M 459.12024052661076 1038.9045255338087 C 458.2129642404064 1039.4791682508853, 457.9081886631439 1040.921090502147, 458.2302258099156 1043.1152698312367 C 458.697965680119 1046.3021852690354, 457.8388677179438 1047.364952106155, 439.1099852833048 1066.7684018884725 C 426.84259750848514 1079.4776301875775, 418.56392108377355 1087.2819636738009, 417 1087.6115523722056 C 409.2148074674635 1089.2522435172084, 407.6989247704297 1092.630029474779, 413.2364970784884 1095.9976282502616 C 418.70569033897254 1099.3236432442477, 431.8948990290045 1104.2543086351243, 433.58635370958257 1103.605236572971 C 434.8785630937559 1103.1093693059672, 435.0607339545844 1102.0770228388697, 434.5330568486787 1098.2403519992722 C 433.93362501968767 1093.8819620049417, 434.1220066063237 1093.2572926622847, 436.81340354833003 1090.678770746357 L 439.7471609499101 1087.8680527738718 450.873580474955 1092.5356851880715 L 462 1097.2033176022715 462 1101.6264096481996 C 462 1105.394840516105, 461.638974637277 1106.1867632923856, 459.56080173401756 1106.9768832219288 C 456.2843376379366 1108.2225926509598, 454.69553620414405 1111.2527325485473, 456.28874671240015 1113.2173008456953 C 457.93145979566424 1115.2429101596983, 482.3302058428638 1123.471001742554, 484.3713862884505 1122.687727312411 C 486.40222267978515 1121.908422268324, 486.5010436089351 1117.6607186930012, 484.5264623500814 1116.021961799955 C 481.9622407933927 1113.89384692371, 481.7274388464755 1108.5749428347478, 482.99216025546855 1081.2658373645118 C 483.9216755682929 1061.1948307905577, 484.56746627997114 1054.2896765771716, 485.6128158652688 1053.244326991874 C 489.1429015689533 1049.7142412881897, 487.54045489325154 1048.3437081351415, 473.0950712126504 1042.5382084620364 C 460.7104060495782 1037.5608972915286, 461.08702103204973 1037.6588233031612, 459.12024052661076 1038.9045255338087 M 815.411398199511 1050.0770721158651 C 821.4027262838471 1057.197360987718, 819.5217866777654 1063.196306271987, 809.8411102332509 1067.8425828314516 C 806.392072773897 1069.4979611505146, 803.265478698554 1070.6640748589955, 802.8931233991552 1070.4339466280758 C 802.0519071635598 1069.9140464025897, 794.7856200656817 1051.881046600985, 795.2359057972214 1051.4307608694453 C 796.7578055143981 1049.9088611522677, 805.3224344130987 1047.127313019437, 808.6611063580068 1047.070637156625 C 812.1251621724747 1047.011832831027, 813.2559418719921 1047.5154578149018, 815.411398199511 1050.0770721158651 M 463.50602840869175 1077.6531773576785 L 462.861549725185 1083.8063547153567 455.4333951809979 1080.7809701193235 L 448.0052406368107 1077.7555855232902 455.2526203184053 1070.3198926379753 C 459.2386791432824 1066.230261551052, 462.725 1062.3477548083117, 463 1061.6920998763303 C 463.83332520653494 1059.7052861250238, 464.1940756924595 1071.084027631181, 463.50602840869175 1077.6531773576785 M 701 1064.0032931382198 C 691.375 1065.5430415242297, 680.125 1067.1262059683145, 676 1067.5214363472971 C 671.875 1067.9166667262798, 667.9375 1068.6911288251251, 667.25 1069.2424632336204 C 664.9107165833144 1071.118430417389, 665.8032332355791 1074.846887659137, 668.9855130306383 1076.4925084969914 C 672.581785524608 1078.3522132796654, 672.2302061253131 1076.959686990113, 676.435445010494 1106 C 679.7001438679782 1128.545182162769, 679.7678436299084 1129.6015763656628, 678.1016732095545 1132 C 675.4225229413242 1135.8565906853025, 675.0244346489551 1137.6511571033957, 676.4236099591362 1139.56464335767 C 677.6083610891211 1141.184887072283, 678.4511753580048 1141.2260654054178, 687.1049263362695 1140.0865125527414 C 707.7249152126826 1137.371208263851, 734.576668976051 1132.7429673696288, 735.8695348401143 1131.6813127562154 C 736.9381221030569 1130.8038276055347, 737.0873093398748 1128.6863368717502, 736.5484474947459 1122.0451583110066 C 735.5183385896654 1109.349627466706, 734.1578909560573 1108.473535678581, 727.1522227842165 1115.994241609099 L 722.5 1120.988483218198 711.0179653743728 1122.9288736501385 C 704.7028463302779 1123.9960883877054, 699.4542344231164 1124.786179663611, 699.3543833584584 1124.6846320410393 C 698.8802838975879 1124.2024772109548, 697.030273789176 1108.6363928774906, 697.4027959354321 1108.2638707312346 C 697.6370005219721 1108.0296661446944, 701.354682403721 1107.2834289644184, 705.664311228207 1106.6055658861765 C 712.9221702391067 1105.463974614413, 713.6943731196155 1105.5144599795956, 716.135806207966 1107.2901751532531 C 719.8621851669619 1110.0004635047385, 723 1108.845918365757, 723 1104.764525299037 C 723 1099.1676450038867, 720.83904035083 1089.1113047868507, 719.3753135611939 1087.8965194467705 C 717.5912358759883 1086.415866477311, 713 1088.210278290499, 713 1090.3882097619671 C 713 1091.3936743656357, 710.8437620305297 1092.1569347017548, 705.75 1092.954548688938 C 701.7625 1093.5789370594255, 697.5257966077519 1094.2935567865297, 696.3351035727819 1094.5425925269476 C 694.3121151427086 1094.9657044514688, 694.1238764016383 1094.5009669228239, 693.4634022859856 1087.4527270112562 C 693.0746596132175 1083.304265237208, 692.9708785439041 1079.6957881227627, 693.2327776875112 1079.4338889791554 C 693.9027069483731 1078.7639597182936, 709.9417940449724 1076.0030196304253, 713.1732747180565 1076.0013670848562 C 714.6435758129876 1076.0006151881853, 717.2221253598866 1077.157470829143, 718.9033848222766 1078.5721573980954 C 720.7162510313146 1080.097583743407, 722.8839444883278 1081.0132138951653, 724.2301101042201 1080.8221573980954 C 726.2493490637702 1080.5355739957238, 726.4733676340153 1080.0030907820105, 726.2588178230701 1076 C 726.1261676257586 1073.525, 725.4511676257587 1069.25, 724.7588178230701 1066.5 C 723.1930099861646 1060.2806416138649, 723.8432420761376 1060.3489715675214, 701 1064.0032931382198 M 548.6666666666667 1064.6666666666665 C 547.3249442737947 1066.0083890595386, 548.052600607866 1069.7376277716542, 550 1071.5 C 552.5242480456184 1073.7844130849703, 552.518906332823 1074.0691388906082, 549.4261241699677 1102.0889261182692 C 546.7430355549002 1126.3969983161978, 546.2619409825121 1128.464700150066, 543.0522138000972 1129.4834279836164 C 540.512864186194 1130.2893862423027, 539.3867713821035 1133.8408044974217, 541.1472213591535 1135.491303094847 C 543.1206506382974 1137.3414790724696, 567.9670831392099 1140.272207998948, 569.6734200938448 1138.8560741053798 C 571.5886527987471 1137.2665721373685, 571.3046110068975 1134.5856442967488, 569 1132.5 C 566.8734990247651 1130.5755430665931, 566.5029983593546 1126.9051648174798, 567.6157429792299 1118.786807731945 C 568.0964424800392 1115.2797225223615, 568.8430647825179 1113.93320443337, 571.0200350358664 1112.6472364664573 C 572.55373702844 1111.7412564099059, 574.0442589449948 1111, 574.3323059615436 1111 C 575.8304800048514 1111, 587.0911779133122 1133.5005822474966, 586.5907860273069 1135.494302323994 C 585.3952014157197 1140.257890843186, 587.742584180833 1141.3099472148963, 601.9198278261347 1142.3645138363 C 613.5411757469782 1143.22896153288, 615.2737886118748 1143.1547828166965, 616.696703034522 1141.7318683940493 C 618.1792550104526 1140.2493164181187, 618.1740026081668 1139.9145068569328, 616.6312555283807 1137.5599772060507 C 615.7087067099316 1136.151989742723, 614.5756315175895 1135, 614.1133106565094 1135 C 612.130756562807 1135, 607.4280776440079 1128.7821926107272, 598.4467835329901 1114.2859666171435 C 593.1728352268946 1105.773569007332, 589.0022846249326 1098.7106871102708, 589.1788933064081 1098.5906735125627 C 589.3555019878837 1098.4706599148549, 594.2131956163938 1094.3938157495572, 599.9737680364306 1089.5310198119018 C 605.7343404564674 1084.6682238742462, 612.323584879067 1079.859707065127, 614.6165334199852 1078.845426902748 C 619.2890533759323 1076.7785491621166, 620.7738986279945 1074.345327199423, 618.6554345682391 1072.2268631396678 C 617.1496615081155 1070.7210900795442, 594.2314392818543 1068.313474800929, 591.4744430431946 1069.3714335239874 C 589.6754080653146 1070.0617880196685, 589.5356355639602 1074.1209502831766, 591.25 1075.8895305918252 C 592.5309753436444 1077.2110161062278, 587.3403891409598 1082.6476054642342, 574.5972473617081 1093.3315254339534 L 569.6944947234163 1097.4420201397509 570.2926630812474 1093.9710100698753 C 570.6216556780544 1092.061954531444, 571.1979368722687 1087.4147008018294, 571.573287957279 1083.6437795596207 C 572.1544051308931 1077.8056531182583, 572.6822325186507 1076.40755654494, 575.1278722377399 1074.2284816471806 C 578.5929860895542 1071.1410511669549, 578.8620574059582 1068.2380238940557, 575.75 1067.5163062833935 C 572.3604366247791 1066.7302322297248, 553.2778448636163 1064, 551.1732491351202 1064 C 550.1612954441374 1064, 549.0333333333334 1064.3, 548.6666666666667 1064.6666666666665" stroke="none" fill="#000000" fill-rule="evenodd" data-fill-layer-id="trace-color"/>
</svg>